REM MD5 97f830f5de67bef72397765978477b4c
FILE "Pilot ni Narou! (Japan) (Demo).bin" BINARY
  TRACK 01 MODE2/2352
    INDEX 01 00:00:00
  TRACK 02 AUDIO
    INDEX 00 06:29:22
    INDEX 01 06:31:22
  TRACK 03 AUDIO
    INDEX 00 07:03:37
    INDEX 01 07:05:37
  TRACK 04 AUDIO
    INDEX 00 10:41:66
    INDEX 01 10:43:66
REM LEADOUT 14:12:65
